<?xml version="1.0" encoding="UTF-8" standalone="yes"?>
<svg version="1.2" width="100%" viewBox="0 0 513 513" xml:space="preserve" baseProfile="tiny-ps" xmlns="http://www.w3.org/2000/svg">
  <title>bimi-svg-tiny-12-ps</title>
  <path fill="#000000" stroke="none" d="&#xA;M285.000000,514.000000 &#xA;&#x9;C190.023026,514.000000 95.546043,514.000000 1.034531,514.000000 &#xA;&#x9;C1.034531,343.064697 1.034531,172.129364 1.034531,1.097015 &#xA;&#x9;C171.893631,1.097015 342.787323,1.097015 513.840515,1.097015 &#xA;&#x9;C513.840515,171.999878 513.840515,342.999939 513.840515,514.000000 &#xA;&#x9;C437.796051,514.000000 361.648041,514.000000 285.000000,514.000000 &#xA;M155.845657,423.350037 &#xA;&#x9;C156.882965,424.604858 157.920288,425.859711 159.212952,427.703369 &#xA;&#x9;C160.770493,429.149750 162.328033,430.596100 164.175980,432.663025 &#xA;&#x9;C165.117889,433.602112 165.972061,434.654205 167.014618,435.463654 &#xA;&#x9;C187.873978,451.658966 212.192734,457.619568 237.927856,458.888031 &#xA;&#x9;C245.820770,459.277100 253.777390,458.278351 261.708130,458.014160 &#xA;&#x9;C280.029236,457.403870 297.103851,452.380890 313.037781,443.450653 &#xA;&#x9;C325.944214,436.217194 336.110748,426.134613 342.954529,412.990692 &#xA;&#x9;C351.644592,396.300964 352.915710,378.397491 349.787689,360.254181 &#xA;&#x9;C348.187408,350.971985 344.547699,342.140656 337.766083,334.265594 &#xA;&#x9;C334.203461,330.377014 331.054657,325.978882 327.004944,322.690094 &#xA;&#x9;C311.397247,310.015015 293.061096,303.010956 273.827728,297.970184 &#xA;&#x9;C257.798431,293.769073 241.757339,289.587097 225.850937,284.952423 &#xA;&#x9;C215.145142,281.833069 205.846970,276.192963 198.995453,266.196472 &#xA;&#x9;C189.574493,246.782883 202.290924,225.652802 225.307755,220.080505 &#xA;&#x9;C225.514526,220.449570 225.796249,220.826126 225.952148,221.249054 &#xA;&#x9;C230.338211,233.147827 243.102509,236.332306 251.402222,226.860428 &#xA;&#x9;C262.392822,214.317657 272.520233,201.017471 282.986298,188.016769 &#xA;&#x9;C286.110718,184.135681 290.295288,180.780914 289.972992,174.248749 &#xA;&#x9;C290.692505,171.546371 291.748688,168.702469 286.989044,167.557159 &#xA;&#x9;C285.717865,166.375397 284.596222,164.424591 283.149933,164.143372 &#xA;&#x9;C276.453644,162.841263 269.654541,162.079788 262.917023,160.973969 &#xA;&#x9;C257.537323,160.091019 252.193237,158.991013 246.881378,157.484726 &#xA;&#x9;C246.595337,157.378708 246.309280,157.272690 245.164764,157.028946 &#xA;&#x9;C239.370590,156.143341 233.579224,155.238785 227.781570,154.376572 &#xA;&#x9;C219.054916,153.078751 210.365585,153.826569 207.195755,163.449188 &#xA;&#x9;C207.852722,168.299072 208.509689,173.148941 208.767990,178.651184 &#xA;&#x9;C199.597214,182.751297 189.957321,186.057098 181.362686,191.132812 &#xA;&#x9;C167.563705,199.282104 156.910095,210.731110 150.248795,226.351028 &#xA;&#x9;C145.503220,240.007401 143.549362,253.904144 145.946640,268.339874 &#xA;&#x9;C147.684158,278.802704 151.248032,288.346771 158.246460,296.748688 &#xA;&#x9;C158.246460,296.748688 158.495010,296.829956 158.845657,297.350037 &#xA;&#x9;C159.882965,298.604858 160.920288,299.859711 162.157379,301.643402 &#xA;&#x9;C162.733444,302.109772 163.309509,302.576111 164.175964,303.663025 &#xA;&#x9;C170.419327,308.102112 176.381332,313.020355 182.962387,316.884247 &#xA;&#x9;C198.468399,325.988129 215.941269,329.575775 233.108597,334.099884 &#xA;&#x9;C252.996994,339.341003 273.683167,342.599121 291.212952,355.703369 &#xA;&#x9;C292.770508,357.149750 294.328033,358.596130 296.194611,360.693909 &#xA;&#x9;C297.469116,363.650146 299.491852,366.518158 299.853241,369.582092 &#xA;&#x9;C300.491394,374.991699 300.117126,380.520691 299.847595,386.646271 &#xA;&#x9;C293.435974,402.243774 280.952820,410.323517 265.208282,413.800415 &#xA;&#x9;C255.284653,415.991852 245.245422,416.518188 234.946182,415.166748 &#xA;&#x9;C218.292404,412.981415 204.248611,406.762421 194.000854,392.228271 &#xA;&#x9;C192.650314,389.153473 191.441818,386.005615 189.908020,383.025116 &#xA;&#x9;C188.464539,380.220093 186.677994,377.591614 184.732132,374.239532 &#xA;&#x9;C182.112610,373.159729 179.535339,371.291962 176.865601,371.148804 &#xA;&#x9;C169.063370,370.730469 161.224197,370.984680 153.399597,371.004852 &#xA;&#x9;C146.877747,371.021667 143.197647,373.674286 140.192551,380.455353 &#xA;&#x9;C139.176788,396.609558 145.597641,410.115204 155.246429,422.748688 &#xA;&#x9;C155.246429,422.748688 155.495010,422.829956 155.845657,423.350037 &#xA;M226.065323,57.764950 &#xA;&#x9;C222.943695,57.839451 219.822372,57.931679 216.700394,57.985550 &#xA;&#x9;C197.515182,58.316620 179.966644,64.308304 164.004593,74.490898 &#xA;&#x9;C136.813217,91.836975 119.325729,116.349426 112.130547,147.932526 &#xA;&#x9;C111.494270,150.725449 110.240784,151.706787 107.504021,152.048325 &#xA;&#x9;C80.734451,155.388916 58.589367,167.196213 41.315060,188.109879 &#xA;&#x9;C25.590136,207.147720 18.138243,229.260925 18.231735,253.562836 &#xA;&#x9;C18.298084,270.809875 22.391750,287.484619 31.286356,302.684570 &#xA;&#x9;C50.194958,334.997467 78.442284,352.473206 115.663101,353.779602 &#xA;&#x9;C145.621353,354.831085 175.646133,353.940979 205.640793,354.061646 &#xA;&#x9;C209.393097,354.076752 210.952774,352.754150 211.528549,349.092590 &#xA;&#x9;C212.147446,345.156677 209.344193,345.221924 207.074997,344.514465 &#xA;&#x9;C185.700272,337.850555 165.811401,328.590973 149.723206,312.414917 &#xA;&#x9;C148.291992,310.975861 145.627274,310.175110 143.505585,310.114014 &#xA;&#x9;C134.680939,309.859833 125.844353,309.940857 117.013031,310.011078 &#xA;&#x9;C85.484619,310.261810 57.422047,280.053802 62.390911,245.020569 &#xA;&#x9;C67.234467,210.870895 98.553841,188.839661 130.675446,196.580063 &#xA;&#x9;C137.099304,198.128021 143.013275,196.629745 148.074570,191.589478 &#xA;&#x9;C153.379349,186.306702 153.007660,179.941833 153.007126,173.444855 &#xA;&#x9;C153.004639,143.451416 170.829086,116.809685 198.675980,105.763252 &#xA;&#x9;C218.289108,97.983025 237.410126,99.576996 255.839706,109.862000 &#xA;&#x9;C270.486298,118.035828 280.736938,130.150299 287.595093,145.260956 &#xA;&#x9;C289.834076,150.194092 293.444000,153.954605 298.599487,154.412216 &#xA;&#x9;C303.719360,154.866684 309.406006,154.543991 314.144165,152.731873 &#xA;&#x9;C336.061981,144.349289 361.510345,151.282288 375.573883,169.780014 &#xA;&#x9;C384.181183,181.101166 388.327789,193.599976 388.088440,207.847702 &#xA;&#x9;C387.869476,220.876846 396.741486,229.271683 409.284973,227.849457 &#xA;&#x9;C422.797241,226.317352 433.658264,230.932251 442.907959,240.398499 &#xA;&#x9;C453.694244,251.437317 457.309357,269.893921 451.403076,284.068542 &#xA;&#x9;C444.637787,300.304626 430.703613,309.981598 413.991669,309.995148 &#xA;&#x9;C391.162018,310.013672 368.332397,309.990173 345.502777,310.019073 &#xA;&#x9;C343.612488,310.021484 341.722534,310.285919 339.364624,310.463928 &#xA;&#x9;C339.966553,311.754242 340.092346,312.476715 340.520050,312.874664 &#xA;&#x9;C351.982452,323.539062 360.170563,336.226868 364.799713,351.247803 &#xA;&#x9;C365.174133,352.462677 367.494843,353.863983 368.902679,353.855011 &#xA;&#x9;C387.039215,353.739258 405.220062,354.088196 423.298126,352.911865 &#xA;&#x9;C446.883911,351.377136 465.649811,339.857666 479.945312,321.368073 &#xA;&#x9;C502.622070,292.038300 503.990997,251.823624 483.599426,221.406281 &#xA;&#x9;C471.740906,203.717346 455.609161,191.786835 434.832245,186.465271 &#xA;&#x9;C431.974854,185.733398 429.741852,184.925598 428.907318,181.412994 &#xA;&#x9;C425.721161,168.002808 420.261597,155.565720 411.753510,144.611145 &#xA;&#x9;C388.518585,114.694992 357.767944,102.606895 320.457581,106.481049 &#xA;&#x9;C317.512177,106.786888 316.011139,106.040062 314.158356,103.933128 &#xA;&#x9;C308.583740,97.593849 303.080170,91.102188 296.836975,85.457367 &#xA;&#x9;C277.058167,67.574272 253.655319,58.447025 226.065323,57.764950 &#xA;z"/>
  <path fill="#0C1F3A" stroke="none" d="&#xA;M226.511246,57.824959 &#xA;&#x9;C253.655319,58.447025 277.058167,67.574272 296.836975,85.457367 &#xA;&#x9;C303.080170,91.102188 308.583740,97.593849 314.158356,103.933128 &#xA;&#x9;C316.011139,106.040062 317.512177,106.786888 320.457581,106.481049 &#xA;&#x9;C357.767944,102.606895 388.518585,114.694992 411.753510,144.611145 &#xA;&#x9;C420.261597,155.565720 425.721161,168.002808 428.907318,181.412994 &#xA;&#x9;C429.741852,184.925598 431.974854,185.733398 434.832245,186.465271 &#xA;&#x9;C455.609161,191.786835 471.740906,203.717346 483.599426,221.406281 &#xA;&#x9;C503.990997,251.823624 502.622070,292.038300 479.945312,321.368073 &#xA;&#x9;C465.649811,339.857666 446.883911,351.377136 423.298126,352.911865 &#xA;&#x9;C405.220062,354.088196 387.039215,353.739258 368.902679,353.855011 &#xA;&#x9;C367.494843,353.863983 365.174133,352.462677 364.799713,351.247803 &#xA;&#x9;C360.170563,336.226868 351.982452,323.539062 340.520050,312.874664 &#xA;&#x9;C340.092346,312.476715 339.966553,311.754242 339.364624,310.463928 &#xA;&#x9;C341.722534,310.285919 343.612488,310.021484 345.502777,310.019073 &#xA;&#x9;C368.332397,309.990173 391.162018,310.013672 413.991669,309.995148 &#xA;&#x9;C430.703613,309.981598 444.637787,300.304626 451.403076,284.068542 &#xA;&#x9;C457.309357,269.893921 453.694244,251.437317 442.907959,240.398499 &#xA;&#x9;C433.658264,230.932251 422.797241,226.317352 409.284973,227.849457 &#xA;&#x9;C396.741486,229.271683 387.869476,220.876846 388.088440,207.847702 &#xA;&#x9;C388.327789,193.599976 384.181183,181.101166 375.573883,169.780014 &#xA;&#x9;C361.510345,151.282288 336.061981,144.349289 314.144165,152.731873 &#xA;&#x9;C309.406006,154.543991 303.719360,154.866684 298.599487,154.412216 &#xA;&#x9;C293.444000,153.954605 289.834076,150.194092 287.595093,145.260956 &#xA;&#x9;C280.736938,130.150299 270.486298,118.035828 255.839706,109.862000 &#xA;&#x9;C237.410126,99.576996 218.289108,97.983025 198.675980,105.763252 &#xA;&#x9;C170.829086,116.809685 153.004639,143.451416 153.007126,173.444855 &#xA;&#x9;C153.007660,179.941833 153.379349,186.306702 148.074570,191.589478 &#xA;&#x9;C143.013275,196.629745 137.099304,198.128021 130.675446,196.580063 &#xA;&#x9;C98.553841,188.839661 67.234467,210.870895 62.390911,245.020569 &#xA;&#x9;C57.422047,280.053802 85.484619,310.261810 117.013031,310.011078 &#xA;&#x9;C125.844353,309.940857 134.680939,309.859833 143.505585,310.114014 &#xA;&#x9;C145.627274,310.175110 148.291992,310.975861 149.723206,312.414917 &#xA;&#x9;C165.811401,328.590973 185.700272,337.850555 207.074997,344.514465 &#xA;&#x9;C209.344193,345.221924 212.147446,345.156677 211.528549,349.092590 &#xA;&#x9;C210.952774,352.754150 209.393097,354.076752 205.640793,354.061646 &#xA;&#x9;C175.646133,353.940979 145.621353,354.831085 115.663101,353.779602 &#xA;&#x9;C78.442284,352.473206 50.194958,334.997467 31.286356,302.684570 &#xA;&#x9;C22.391750,287.484619 18.298084,270.809875 18.231735,253.562836 &#xA;&#x9;C18.138243,229.260925 25.590136,207.147720 41.315060,188.109879 &#xA;&#x9;C58.589367,167.196213 80.734451,155.388916 107.504021,152.048325 &#xA;&#x9;C110.240784,151.706787 111.494270,150.725449 112.130547,147.932526 &#xA;&#x9;C119.325729,116.349426 136.813217,91.836975 164.004593,74.490898 &#xA;&#x9;C179.966644,64.308304 197.515182,58.316620 216.700394,57.985550 &#xA;&#x9;C219.822372,57.931679 222.943695,57.839451 226.511246,57.824959 &#xA;z"/>
  <path fill="#EF4923" stroke="none" d="&#xA;M194.114868,392.957886 &#xA;&#x9;C204.248611,406.762421 218.292404,412.981415 234.946182,415.166748 &#xA;&#x9;C245.245422,416.518188 255.284653,415.991852 265.208282,413.800415 &#xA;&#x9;C280.952820,410.323517 293.435974,402.243774 300.286743,386.133728 &#xA;&#x9;C305.949005,378.771332 305.178406,371.783478 300.877441,364.950195 &#xA;&#x9;C299.667816,363.028351 297.573914,361.663086 295.885590,360.042511 &#xA;&#x9;C294.328033,358.596130 292.770508,357.149750 291.055145,355.036896 &#xA;&#x9;C290.003906,352.862793 289.472931,350.770660 288.152374,349.951904 &#xA;&#x9;C283.243408,346.908234 278.366211,343.328430 272.950409,341.675690 &#xA;&#x9;C254.861115,336.155396 236.609711,331.127380 218.295395,326.394501 &#xA;&#x9;C200.750397,321.860443 184.312531,315.107635 169.400757,304.713989 &#xA;&#x9;C167.902100,303.669403 165.739853,303.576843 163.885559,303.042480 &#xA;&#x9;C163.309509,302.576111 162.733444,302.109772 162.027161,301.009247 &#xA;&#x9;C160.762970,299.193390 159.628983,298.011658 158.495010,296.829956 &#xA;&#x9;C158.495010,296.829956 158.246460,296.748688 158.281006,296.253510 &#xA;&#x9;C157.625259,293.940887 157.208832,291.953308 156.201859,290.332611 &#xA;&#x9;C147.140900,275.749603 148.961884,259.373383 148.640900,243.440231 &#xA;&#x9;C148.523849,237.629639 150.089249,231.785172 150.887085,225.956161 &#xA;&#x9;C156.910095,210.731110 167.563705,199.282104 181.362686,191.132812 &#xA;&#x9;C189.957321,186.057098 199.597214,182.751297 209.262405,178.102142 &#xA;&#x9;C211.938797,172.328171 211.840164,167.395447 207.886490,162.956696 &#xA;&#x9;C210.365585,153.826569 219.054916,153.078751 227.781570,154.376572 &#xA;&#x9;C233.579224,155.238785 239.370590,156.143341 245.719391,157.243896 &#xA;&#x9;C246.448196,157.647995 246.634628,157.824173 246.833344,157.987366 &#xA;&#x9;C252.193237,158.991013 257.537323,160.091019 262.917023,160.973969 &#xA;&#x9;C269.654541,162.079788 276.453644,162.841263 283.149933,164.143372 &#xA;&#x9;C284.596222,164.424591 285.717865,166.375397 287.128723,168.334076 &#xA;&#x9;C287.178955,171.074005 287.089478,173.037003 286.780487,175.249146 &#xA;&#x9;C284.422882,178.253235 282.314728,181.032043 280.141541,183.759094 &#xA;&#x9;C270.191498,196.244995 260.432098,208.890945 250.196213,221.138412 &#xA;&#x9;C241.830933,231.147598 233.783493,230.278595 227.070343,219.066483 &#xA;&#x9;C225.369080,216.225082 223.072632,215.370789 220.368774,216.535950 &#xA;&#x9;C215.657135,218.566284 210.748291,220.494431 206.609589,223.433487 &#xA;&#x9;C193.186172,232.965958 188.265427,249.741928 194.843903,262.488739 &#xA;&#x9;C195.750473,264.245331 197.666290,265.481018 199.114868,266.957886 &#xA;&#x9;C205.846970,276.192963 215.145142,281.833069 225.850937,284.952423 &#xA;&#x9;C241.757339,289.587097 257.798431,293.769073 273.827728,297.970184 &#xA;&#x9;C293.061096,303.010956 311.397247,310.015015 327.004944,322.690094 &#xA;&#x9;C331.054657,325.978882 334.203461,330.377014 337.934387,334.955322 &#xA;&#x9;C338.413757,336.761658 338.521271,337.990906 339.066925,338.977814 &#xA;&#x9;C345.639496,350.865112 347.485352,363.644562 347.067261,377.068329 &#xA;&#x9;C346.301056,401.668152 336.678070,421.386841 316.222504,435.520203 &#xA;&#x9;C296.914825,448.860413 274.981567,453.937714 252.088684,454.837677 &#xA;&#x9;C222.395660,456.004944 194.080444,450.822662 169.027954,433.401886 &#xA;&#x9;C167.660110,432.450745 165.615265,432.473236 163.885559,432.042480 &#xA;&#x9;C162.328033,430.596100 160.770493,429.149750 159.054962,427.039246 &#xA;&#x9;C157.762970,425.193390 156.628998,424.011658 155.495010,422.829956 &#xA;&#x9;C155.495010,422.829956 155.246429,422.748688 155.281082,422.254791 &#xA;&#x9;C154.802170,420.233856 154.574951,418.522278 153.729050,417.209381 &#xA;&#x9;C147.790131,407.991791 143.884109,398.209320 143.795074,387.009155 &#xA;&#x9;C143.776337,384.650787 141.904480,382.307129 140.886490,379.956696 &#xA;&#x9;C143.197647,373.674286 146.877747,371.021667 153.399597,371.004852 &#xA;&#x9;C161.224197,370.984680 169.063370,370.730469 176.865601,371.148804 &#xA;&#x9;C179.535339,371.291962 182.112610,373.159729 184.895447,374.968140 &#xA;&#x9;C186.289764,382.388367 187.899628,388.881226 194.114868,392.957886 &#xA;z"/>
  <path fill="#EF4923" stroke="none" d="&#xA;M164.030762,432.352753 &#xA;&#x9;C165.615265,432.473236 167.660110,432.450745 169.027954,433.401886 &#xA;&#x9;C194.080444,450.822662 222.395660,456.004944 252.088684,454.837677 &#xA;&#x9;C274.981567,453.937714 296.914825,448.860413 316.222504,435.520203 &#xA;&#x9;C336.678070,421.386841 346.301056,401.668152 347.067261,377.068329 &#xA;&#x9;C347.485352,363.644562 345.639496,350.865112 339.066925,338.977814 &#xA;&#x9;C338.521271,337.990906 338.413757,336.761658 338.072510,335.265259 &#xA;&#x9;C344.547699,342.140656 348.187408,350.971985 349.787689,360.254181 &#xA;&#x9;C352.915710,378.397491 351.644592,396.300964 342.954529,412.990692 &#xA;&#x9;C336.110748,426.134613 325.944214,436.217194 313.037781,443.450653 &#xA;&#x9;C297.103851,452.380890 280.029236,457.403870 261.708130,458.014160 &#xA;&#x9;C253.777390,458.278351 245.820770,459.277100 237.927856,458.888031 &#xA;&#x9;C212.192734,457.619568 187.873978,451.658966 167.014618,435.463654 &#xA;&#x9;C165.972061,434.654205 165.117889,433.602112 164.030762,432.352753 &#xA;z"/>
  <path fill="#EF4923" stroke="none" d="&#xA;M199.055161,266.577179 &#xA;&#x9;C197.666290,265.481018 195.750473,264.245331 194.843903,262.488739 &#xA;&#x9;C188.265427,249.741928 193.186172,232.965958 206.609589,223.433487 &#xA;&#x9;C210.748291,220.494431 215.657135,218.566284 220.368774,216.535950 &#xA;&#x9;C223.072632,215.370789 225.369080,216.225082 227.070343,219.066483 &#xA;&#x9;C233.783493,230.278595 241.830933,231.147598 250.196213,221.138412 &#xA;&#x9;C260.432098,208.890945 270.191498,196.244995 280.141541,183.759094 &#xA;&#x9;C282.314728,181.032043 284.422882,178.253235 287.134674,175.249146 &#xA;&#x9;C288.416687,175.000137 289.125000,175.000275 289.833344,175.000397 &#xA;&#x9;C290.295288,180.780914 286.110718,184.135681 282.986298,188.016769 &#xA;&#x9;C272.520233,201.017471 262.392822,214.317657 251.402222,226.860428 &#xA;&#x9;C243.102509,236.332306 230.338211,233.147827 225.952148,221.249054 &#xA;&#x9;C225.796249,220.826126 225.514526,220.449570 225.307755,220.080505 &#xA;&#x9;C202.290924,225.652802 189.574493,246.782883 199.055161,266.577179 &#xA;z"/>
  <path fill="#EF4923" stroke="none" d="&#xA;M164.030762,303.352753 &#xA;&#x9;C165.739853,303.576843 167.902100,303.669403 169.400757,304.713989 &#xA;&#x9;C184.312531,315.107635 200.750397,321.860443 218.295395,326.394501 &#xA;&#x9;C236.609711,331.127380 254.861115,336.155396 272.950409,341.675690 &#xA;&#x9;C278.366211,343.328430 283.243408,346.908234 288.152374,349.951904 &#xA;&#x9;C289.472931,350.770660 290.003906,352.862793 290.927490,354.742493 &#xA;&#x9;C273.683167,342.599121 252.996994,339.341003 233.108597,334.099884 &#xA;&#x9;C215.941269,329.575775 198.468399,325.988129 182.962387,316.884247 &#xA;&#x9;C176.381332,313.020355 170.419327,308.102112 164.030762,303.352753 &#xA;z"/>
  <path fill="#EF4923" stroke="none" d="&#xA;M150.567932,226.153595 &#xA;&#x9;C150.089249,231.785172 148.523849,237.629639 148.640900,243.440231 &#xA;&#x9;C148.961884,259.373383 147.140900,275.749603 156.201859,290.332611 &#xA;&#x9;C157.208832,291.953308 157.625259,293.940887 158.241135,296.128998 &#xA;&#x9;C151.248032,288.346771 147.684158,278.802704 145.946640,268.339874 &#xA;&#x9;C143.549362,253.904144 145.503220,240.007401 150.567932,226.153595 &#xA;z"/>
  <path fill="#EF4923" stroke="none" d="&#xA;M140.539520,380.206024 &#xA;&#x9;C141.904480,382.307129 143.776337,384.650787 143.795074,387.009155 &#xA;&#x9;C143.884109,398.209320 147.790131,407.991791 153.729050,417.209381 &#xA;&#x9;C154.574951,418.522278 154.802170,420.233856 155.241211,422.130249 &#xA;&#x9;C145.597641,410.115204 139.176788,396.609558 140.539520,380.206024 &#xA;z"/>
  <path fill="#EF4923" stroke="none" d="&#xA;M296.040100,360.368225 &#xA;&#x9;C297.573914,361.663086 299.667816,363.028351 300.877441,364.950195 &#xA;&#x9;C305.178406,371.783478 305.949005,378.771332 300.446259,385.810425 &#xA;&#x9;C300.117126,380.520691 300.491394,374.991699 299.853241,369.582092 &#xA;&#x9;C299.491852,366.518158 297.469116,363.650146 296.040100,360.368225 &#xA;z"/>
  <path fill="#EF4923" stroke="none" d="&#xA;M207.541122,163.202942 &#xA;&#x9;C211.840164,167.395447 211.938797,172.328171 209.461731,177.775970 &#xA;&#x9;C208.509689,173.148941 207.852722,168.299072 207.541122,163.202942 &#xA;z"/>
  <path fill="#EF4923" stroke="none" d="&#xA;M194.057861,392.593079 &#xA;&#x9;C187.899628,388.881226 186.289764,382.388367 185.050568,375.291077 &#xA;&#x9;C186.677994,377.591614 188.464539,380.220093 189.908020,383.025116 &#xA;&#x9;C191.441818,386.005615 192.650314,389.153473 194.057861,392.593079 &#xA;z"/>
  <path fill="#EF4923" stroke="none" d="&#xA;M289.903168,174.624573 &#xA;&#x9;C289.125000,175.000275 288.416687,175.000137 287.354156,175.000000 &#xA;&#x9;C287.089478,173.037003 287.178955,171.074005 287.334717,168.620544 &#xA;&#x9;C291.748688,168.702469 290.692505,171.546371 289.903168,174.624573 &#xA;z"/>
  <path fill="#EF4923" stroke="none" d="&#xA;M158.670334,297.089996 &#xA;&#x9;C159.628983,298.011658 160.762970,299.193390 161.927277,300.744812 &#xA;&#x9;C160.920288,299.859711 159.882965,298.604858 158.670334,297.089996 &#xA;z"/>
  <path fill="#EF4923" stroke="none" d="&#xA;M155.670334,423.089996 &#xA;&#x9;C156.628998,424.011658 157.762970,425.193390 158.927277,426.744812 &#xA;&#x9;C157.920288,425.859711 156.882965,424.604858 155.670334,423.089996 &#xA;z"/>
  <path fill="#EF4923" stroke="none" d="&#xA;M246.857361,157.736053 &#xA;&#x9;C246.634628,157.824173 246.448196,157.647995 246.148621,157.312744 &#xA;&#x9;C246.309280,157.272690 246.595337,157.378708 246.857361,157.736053 &#xA;z"/>
</svg>
